<svg xmlns="http://www.w3.org/2000/svg" viewBox="0 0 720 200" width="720" height="200" font-family="-apple-system,BlinkMacSystemFont,'Segoe UI','Helvetica Neue',Liberation Sans,Arial,sans-serif"><defs><marker id="a" viewBox="0 0 10 10" refX="9" refY="5" markerWidth="7" markerHeight="7" orient="auto-start-reverse"><path d="M0,0 L10,5 L0,10 z" fill="#5a6572"/></marker></defs><text x="360" y="22" text-anchor="middle" font-size="11" font-weight="600" fill="#5a6572">LOS DATOS SOBREVIVEN AL PROGRAMA</text><rect x="40" y="46" width="180" height="56" rx="7" fill="#f2f5f6" stroke="#cfd5d9" stroke-width="1.4"/><text x="130.0" y="70.625" text-anchor="middle" font-size="12.5" font-weight="600" fill="#1c2430">Programa</text><text x="130.0" y="86.125" text-anchor="middle" font-size="12.5" font-weight="600" fill="#1c2430">en memoria</text><line x1="222" y1="74" x2="268" y2="74" stroke="#5a6572" stroke-width="1.5" marker-end="url(#a)"/><text x="245" y="64" text-anchor="middle" font-size="10" font-weight="600" fill="#1d7a6c">escribe</text><rect x="270" y="46" width="180" height="56" rx="7" fill="#ffffff" stroke="#1d7a6c" stroke-width="1.4"/><text x="360.0" y="70.625" text-anchor="middle" font-size="12.5" font-weight="600" fill="#1c2430">Fichero</text><text x="360.0" y="86.125" text-anchor="middle" font-size="12.5" font-weight="600" fill="#1c2430">(.txt / .csv)</text><line x1="452" y1="74" x2="498" y2="74" stroke="#5a6572" stroke-width="1.5" marker-end="url(#a)"/><text x="475" y="64" text-anchor="middle" font-size="10" font-weight="600" fill="#1d7a6c">lee</text><rect x="500" y="46" width="180" height="56" rx="7" fill="#f2f5f6" stroke="#cfd5d9" stroke-width="1.4"/><text x="590.0" y="70.625" text-anchor="middle" font-size="12.5" font-weight="600" fill="#1c2430">Otro día,</text><text x="590.0" y="86.125" text-anchor="middle" font-size="12.5" font-weight="600" fill="#1c2430">otro programa</text><rect x="40" y="120" width="640" height="62" rx="8" fill="#eef2f3" stroke="#cfd5d9" stroke-dasharray="5 4"/><text x="360.0" y="140" text-anchor="middle" font-size="10.5" font-weight="600" fill="#5a6572">FORMATOS QUE USAREMOS</text><rect x="60" y="138" width="190" height="34" rx="5" fill="#ffffff" stroke="#cfd5d9" stroke-width="1.4"/><text x="155.0" y="159.025" text-anchor="middle" font-size="11.5" font-weight="450" fill="#1c2430">texto plano</text><rect x="267" y="138" width="190" height="34" rx="5" fill="#ffffff" stroke="#cfd5d9" stroke-width="1.4"/><text x="362.0" y="159.025" text-anchor="middle" font-size="11.5" font-weight="450" fill="#1c2430">CSV (tablas)</text><rect x="474" y="138" width="190" height="34" rx="5" fill="#ffffff" stroke="#cfd5d9" stroke-width="1.4"/><text x="569.0" y="159.025" text-anchor="middle" font-size="11.5" font-weight="450" fill="#1c2430">JSON (estructurado)</text></svg>